<svg width="196" height="196" viewBox="0 0 196 196" fill="none" xmlns="http://www.w3.org/2000/svg">
<path d="M138.833 122.5L93.9167 167.417L73.5 147" stroke="white" stroke-width="17" stroke-linecap="round" stroke-linejoin="round"/>
<path d="M40.8339 144.901C33.3442 139.683 27.2131 132.747 22.9534 124.673C18.6938 116.599 16.4294 107.623 16.3498 98.4952C16.2702 89.3671 18.3777 80.3528 22.496 72.2062C26.6142 64.0595 32.6235 57.0176 40.021 51.6694C47.4186 46.3211 55.9894 42.8222 65.0163 41.4652C74.0433 40.1083 83.2639 40.9328 91.907 43.8697C100.55 46.8066 108.364 51.7706 114.695 58.3464C121.027 64.9222 125.691 72.9186 128.299 81.6666H142.917C151.584 81.6701 159.97 84.7363 166.595 90.3237C173.22 95.911 177.658 103.66 179.123 112.202C180.589 120.743 178.989 129.528 174.605 137.005C170.222 144.481 163.337 150.167 155.167 153.06" stroke="white" stroke-width="17" stroke-linecap="round" stroke-linejoin="round"/>
</svg>
