<svg width="818" height="196" viewBox="0 0 818 196" fill="none" xmlns="http://www.w3.org/2000/svg">
<path d="M138.833 122.5L93.9167 167.417L73.5 147" stroke="black" stroke-width="17" stroke-linecap="round" stroke-linejoin="round"/>
<path d="M40.8339 144.901C33.3442 139.683 27.2131 132.747 22.9534 124.673C18.6938 116.599 16.4294 107.623 16.3498 98.4952C16.2702 89.3671 18.3777 80.3528 22.496 72.2062C26.6142 64.0595 32.6235 57.0176 40.021 51.6694C47.4186 46.3211 55.9894 42.8222 65.0163 41.4652C74.0433 40.1083 83.2639 40.9328 91.907 43.8697C100.55 46.8066 108.364 51.7706 114.695 58.3464C121.027 64.9222 125.691 72.9186 128.299 81.6666H142.917C151.584 81.6701 159.97 84.7363 166.595 90.3237C173.22 95.911 177.658 103.66 179.123 112.202C180.589 120.743 178.989 129.528 174.605 137.005C170.222 144.481 163.337 150.167 155.167 153.06" stroke="black" stroke-width="17" stroke-linecap="round" stroke-linejoin="round"/>
<path d="M789.81 142.338C783.561 142.338 778.164 141.039 773.619 138.442C769.102 135.818 765.626 132.112 763.191 127.324C760.756 122.509 759.539 116.842 759.539 110.322C759.539 103.911 760.756 98.2845 763.191 93.4423C765.653 88.573 769.088 84.7858 773.498 82.0807C777.907 79.3485 783.087 77.9824 789.039 77.9824C792.88 77.9824 796.505 78.6046 799.913 79.849C803.349 81.0663 806.378 82.9599 809.002 85.5297C811.653 88.0996 813.736 91.3728 815.251 95.3494C816.766 99.2989 817.524 104.006 817.524 109.47V113.974H766.437V104.073H803.443C803.416 101.26 802.808 98.7579 801.617 96.5667C800.427 94.3485 798.764 92.6037 796.626 91.3323C794.516 90.0608 792.055 89.4251 789.241 89.4251C786.239 89.4251 783.601 90.1555 781.329 91.6163C779.057 93.05 777.285 94.9436 776.013 97.2971C774.769 99.6235 774.133 102.18 774.106 104.966V113.609C774.106 117.234 774.769 120.345 776.094 122.942C777.42 125.512 779.273 127.486 781.654 128.866C784.034 130.219 786.82 130.895 790.012 130.895C792.149 130.895 794.084 130.597 795.815 130.002C797.546 129.38 799.048 128.474 800.319 127.284C801.59 126.093 802.551 124.619 803.2 122.861L816.915 124.403C816.049 128.027 814.399 131.192 811.965 133.898C809.557 136.576 806.473 138.659 802.713 140.146C798.953 141.607 794.652 142.338 789.81 142.338Z" fill="black"/>
<path d="M694.316 141.121V58.0195H709.005V89.1015H709.614C710.371 87.5867 711.44 85.9771 712.82 84.2729C714.199 82.5416 716.066 81.0673 718.419 79.85C720.773 78.6056 723.775 77.9834 727.427 77.9834C732.242 77.9834 736.584 79.2143 740.452 81.6759C744.348 84.1106 747.432 87.7219 749.704 92.51C752.003 97.271 753.153 103.114 753.153 110.039C753.153 116.883 752.03 122.699 749.785 127.487C747.54 132.276 744.483 135.927 740.615 138.443C736.746 140.959 732.364 142.217 727.468 142.217C723.897 142.217 720.935 141.622 718.581 140.431C716.228 139.241 714.334 137.807 712.901 136.13C711.494 134.426 710.398 132.817 709.614 131.302H708.762V141.121H694.316ZM708.721 109.958C708.721 113.989 709.289 117.519 710.425 120.549C711.589 123.578 713.252 125.945 715.416 127.65C717.608 129.327 720.259 130.165 723.37 130.165C726.616 130.165 729.334 129.3 731.526 127.569C733.717 125.81 735.367 123.416 736.476 120.386C737.612 117.33 738.18 113.854 738.18 109.958C738.18 106.09 737.626 102.654 736.517 99.6516C735.407 96.6489 733.757 94.2954 731.566 92.5912C729.375 90.8869 726.643 90.0348 723.37 90.0348C720.232 90.0348 717.567 90.8599 715.376 92.51C713.185 94.1601 711.521 96.473 710.385 99.4487C709.276 102.424 708.721 105.927 708.721 109.958Z" fill="black"/>
<path d="M667.303 114.907V78.793H681.992V141.119H667.749V130.042H667.1C665.693 133.531 663.381 136.385 660.161 138.604C656.969 140.822 653.033 141.931 648.354 141.931C644.269 141.931 640.657 141.025 637.519 139.212C634.409 137.373 631.974 134.708 630.216 131.218C628.457 127.702 627.578 123.455 627.578 118.477V78.793H642.267V116.205C642.267 120.154 643.349 123.292 645.513 125.619C647.677 127.945 650.518 129.108 654.034 129.108C656.198 129.108 658.295 128.581 660.324 127.526C662.353 126.471 664.016 124.902 665.315 122.819C666.64 120.709 667.303 118.072 667.303 114.907Z" fill="black"/>
<path d="M615.25 58.0195V141.121H601.86L562.703 84.5163H562.013V141.121H546.959V58.0195H560.431L599.547 114.665H600.277V58.0195H615.25Z" fill="black"/>
<path d="M507.41 142.338C501.323 142.338 496.048 140.999 491.585 138.32C487.121 135.642 483.659 131.896 481.197 127.081C478.762 122.265 477.545 116.639 477.545 110.201C477.545 103.762 478.762 98.1221 481.197 93.28C483.659 88.4378 487.121 84.6776 491.585 81.9995C496.048 79.3215 501.323 77.9824 507.41 77.9824C513.496 77.9824 518.771 79.3215 523.235 81.9995C527.698 84.6776 531.147 88.4378 533.582 93.28C536.043 98.1221 537.274 103.762 537.274 110.201C537.274 116.639 536.043 122.265 533.582 127.081C531.147 131.896 527.698 135.642 523.235 138.32C518.771 140.999 513.496 142.338 507.41 142.338ZM507.491 130.57C510.791 130.57 513.55 129.664 515.768 127.852C517.987 126.012 519.637 123.55 520.719 120.467C521.828 117.383 522.383 113.947 522.383 110.16C522.383 106.346 521.828 102.897 520.719 99.8129C519.637 96.702 517.987 94.2268 515.768 92.3873C513.55 90.5478 510.791 89.628 507.491 89.628C504.109 89.628 501.296 90.5478 499.051 92.3873C496.833 94.2268 495.169 96.702 494.06 99.8129C492.978 102.897 492.437 106.346 492.437 110.16C492.437 113.947 492.978 117.383 494.06 120.467C495.169 123.55 496.833 126.012 499.051 127.852C501.296 129.664 504.109 130.57 507.491 130.57Z" fill="black"/>
<path d="M453.855 141.119V78.7926H468.544V141.119H453.855ZM461.24 69.9468C458.914 69.9468 456.912 69.1758 455.235 67.6339C453.557 66.0649 452.719 64.1848 452.719 61.9937C452.719 59.7755 453.557 57.8954 455.235 56.3535C456.912 54.7845 458.914 54 461.24 54C463.593 54 465.595 54.7845 467.245 56.3535C468.923 57.8954 469.761 59.7755 469.761 61.9937C469.761 64.1848 468.923 66.0649 467.245 67.6339C465.595 69.1758 463.593 69.9468 461.24 69.9468Z" fill="black"/>
<path d="M444.997 78.7927V90.1543H409.168V78.7927H444.997ZM418.014 63.8604H432.703V122.372C432.703 124.347 433 125.862 433.595 126.917C434.218 127.945 435.029 128.648 436.03 129.027C437.031 129.406 438.14 129.595 439.357 129.595C440.277 129.595 441.116 129.528 441.873 129.392C442.658 129.257 443.253 129.135 443.658 129.027L446.134 140.51C445.349 140.781 444.227 141.078 442.766 141.403C441.332 141.728 439.574 141.917 437.491 141.971C433.812 142.079 430.498 141.525 427.549 140.307C424.601 139.063 422.261 137.142 420.53 134.546C418.825 131.949 417.987 128.702 418.014 124.807V63.8604Z" fill="black"/>
<path d="M403.854 95.2682L390.463 96.729C390.085 95.3764 389.422 94.105 388.475 92.9148C387.555 91.7245 386.311 90.7642 384.742 90.0338C383.173 89.3034 381.252 88.9382 378.98 88.9382C375.923 88.9382 373.353 89.601 371.27 90.9265C369.214 92.252 368.2 93.9698 368.227 96.0798C368.2 97.8922 368.863 99.3665 370.215 100.503C371.595 101.639 373.867 102.572 377.032 103.302L387.663 105.575C393.561 106.846 397.943 108.862 400.81 111.621C403.705 114.38 405.166 117.991 405.193 122.455C405.166 126.377 404.016 129.84 401.744 132.843C399.498 135.818 396.374 138.145 392.37 139.822C388.367 141.499 383.768 142.338 378.574 142.338C370.946 142.338 364.805 140.742 360.152 137.549C355.499 134.33 352.727 129.853 351.834 124.119L366.158 122.739C366.807 125.552 368.187 127.676 370.297 129.109C372.407 130.543 375.152 131.26 378.534 131.26C382.023 131.26 384.823 130.543 386.933 129.109C389.07 127.676 390.139 125.904 390.139 123.794C390.139 122.008 389.449 120.534 388.069 119.371C386.717 118.208 384.607 117.315 381.739 116.693L371.108 114.461C365.13 113.217 360.707 111.12 357.839 108.172C354.972 105.196 353.552 101.436 353.579 96.8913C353.552 93.05 354.593 89.7227 356.703 86.9094C358.84 84.069 361.802 81.8778 365.59 80.3359C369.404 78.7669 373.8 77.9824 378.777 77.9824C386.081 77.9824 391.829 79.5379 396.022 82.6488C400.242 85.7597 402.853 89.9662 403.854 95.2682Z" fill="black"/>
<path d="M317.88 142.338C311.631 142.338 306.234 141.039 301.69 138.442C297.172 135.818 293.696 132.112 291.261 127.324C288.827 122.509 287.609 116.842 287.609 110.322C287.609 103.911 288.827 98.2845 291.261 93.4423C293.723 88.573 297.159 84.7858 301.568 82.0807C305.977 79.3485 311.158 77.9824 317.109 77.9824C320.95 77.9824 324.575 78.6046 327.984 79.849C331.419 81.0663 334.449 82.9599 337.073 85.5297C339.724 88.0996 341.807 91.3728 343.322 95.3494C344.837 99.2989 345.594 104.006 345.594 109.47V113.974H294.507V104.073H331.514C331.487 101.26 330.878 98.7579 329.688 96.5667C328.497 94.3485 326.834 92.6037 324.697 91.3323C322.587 90.0608 320.125 89.4251 317.312 89.4251C314.309 89.4251 311.672 90.1555 309.399 91.6163C307.127 93.05 305.355 94.9436 304.084 97.2971C302.839 99.6235 302.204 102.18 302.177 104.966V113.609C302.177 117.234 302.839 120.345 304.165 122.942C305.49 125.512 307.343 127.486 309.724 128.866C312.104 130.219 314.891 130.895 318.083 130.895C320.22 130.895 322.154 130.597 323.885 130.002C325.617 129.38 327.118 128.474 328.389 127.284C329.661 126.093 330.621 124.619 331.27 122.861L344.985 124.403C344.12 128.027 342.47 131.192 340.035 133.898C337.627 136.576 334.543 138.659 330.783 140.146C327.023 141.607 322.722 142.338 317.88 142.338Z" fill="black"/>
<path d="M263.782 84.5563C263.105 82.3652 262.172 80.404 260.982 78.6727C259.819 76.9143 258.412 75.413 256.762 74.1686C255.139 72.9243 253.272 71.991 251.162 71.3688C249.052 70.7196 246.753 70.395 244.264 70.395C239.801 70.395 235.824 71.5176 232.334 73.7629C228.845 76.0081 226.099 79.3084 224.097 83.6637C222.123 87.9919 221.135 93.2669 221.135 99.4887C221.135 105.765 222.123 111.08 224.097 115.435C226.072 119.791 228.818 123.105 232.334 125.377C235.851 127.622 239.936 128.745 244.589 128.745C248.809 128.745 252.461 127.933 255.545 126.31C258.655 124.687 261.05 122.388 262.727 119.412C264.404 116.409 265.242 112.893 265.242 108.862L268.651 109.389H246.09V97.6222H279.81V107.604C279.81 114.719 278.295 120.873 275.265 126.067C272.235 131.261 268.069 135.264 262.767 138.077C257.465 140.864 251.379 142.257 244.508 142.257C236.852 142.257 230.13 140.539 224.341 137.104C218.579 133.641 214.075 128.731 210.829 122.374C207.61 115.99 206 108.416 206 99.651C206 92.9423 206.947 86.9504 208.84 81.6754C210.761 76.4004 213.439 71.9234 216.875 68.2444C220.31 64.5383 224.341 61.725 228.967 59.8044C233.592 57.8567 238.624 56.8828 244.061 56.8828C248.66 56.8828 252.948 57.5591 256.924 58.9117C260.901 60.2372 264.431 62.1308 267.515 64.5925C270.626 67.0541 273.182 69.9757 275.184 73.3571C277.186 76.7385 278.498 80.4716 279.12 84.5563H263.782Z" fill="black"/>
</svg>
